<?xml version="1.0" encoding="UTF-8" standalone="no"?><!DOCTYPE svg PUBLIC "-//W3C//DTD SVG 1.1//EN" "http://www.w3.org/Graphics/SVG/1.1/DTD/svg11.dtd"><svg width="100%" height="100%" viewBox="0 0 860 267" version="1.1" xmlns="http://www.w3.org/2000/svg" xmlns:xlink="http://www.w3.org/1999/xlink" xml:space="preserve" style="fill-rule:evenodd;clip-rule:evenodd;stroke-linejoin:round;stroke-miterlimit:1.41421;"><g><path d="M263.379,12.011l-252.387,252.386c-2.514,2.515 -6.591,2.515 -9.107,0c-2.514,-2.514 -2.514,-6.593 0,-9.107l252.387,-252.386c2.514,-2.515 6.593,-2.515 9.107,0c2.515,2.515 2.515,6.593 0,9.107Z" style="fill:#414757;fill-rule:nonzero;"/><path d="M114.062,105.882l-102.999,-102.999c-2.528,-2.529 -6.627,-2.529 -9.155,0c-2.528,2.528 -2.528,6.627 0,9.155l102.999,102.999c2.528,2.529 6.627,2.529 9.155,0c2.529,-2.528 2.529,-6.627 0,-9.155Z" style="fill:#414757;fill-rule:nonzero;"/><path d="M152.391,162.522l101.853,101.853c2.529,2.528 6.629,2.528 9.156,0c2.528,-2.527 2.528,-6.627 0,-9.154l-101.853,-101.855c-2.529,-2.528 -6.627,-2.528 -9.156,0c-2.528,2.528 -2.528,6.627 0,9.156Z" style="fill:#414757;fill-rule:nonzero;"/><path d="M585.456,255.033l-126.368,-126.369c-2.276,-2.275 -5.965,-2.275 -8.241,0l-126.368,126.369c-2.465,2.464 -2.83,6.522 -0.496,9.112c2.488,2.764 6.75,2.848 9.345,0.251l121.639,-121.638l121.64,121.638c2.595,2.597 6.856,2.513 9.344,-0.251c2.334,-2.59 1.972,-6.646 -0.495,-9.112Z" style="fill:#414757;fill-rule:nonzero;"/><path d="M322.149,208.898l0,-201.472c0,-3.555 2.882,-6.438 6.439,-6.438c3.557,0 6.44,2.883 6.44,6.438l0,201.472c0,3.557 -2.883,6.44 -6.44,6.44c-3.557,0 -6.439,-2.883 -6.439,-6.44Z" style="fill:#414757;fill-rule:nonzero;"/><path d="M574.721,208.898l0,-201.472c0,-3.555 2.883,-6.438 6.44,-6.438c3.557,0 6.439,2.883 6.439,6.438l0,201.472c0,3.557 -2.882,6.44 -6.439,6.44c-3.557,0 -6.44,-2.883 -6.44,-6.44Z" style="fill:#414757;fill-rule:nonzero;"/><path d="M661.807,259.844l0,-93.556c0,-3.557 2.882,-6.44 6.439,-6.44c3.557,0 6.44,2.883 6.44,6.44l0,93.556c0,3.557 -2.883,6.439 -6.44,6.439c-3.557,0 -6.439,-2.882 -6.439,-6.439Z" style="fill:#414757;fill-rule:nonzero;"/><path d="M774.736,0.987l-106.489,0c-3.557,0 -6.441,2.885 -6.441,6.442l0,115.246c0,3.557 2.884,6.44 6.44,6.44c3.557,0 6.439,-2.883 6.439,-6.44l0,-108.81l100.032,0.058c0.007,0 0.012,-0.001 0.019,-0.001c39.883,0 72.329,32.447 72.329,72.329c0,39.883 -32.446,72.331 -72.329,72.331l-58.391,0.033c-3.562,0.001 -6.448,2.889 -6.448,6.45c0,3.564 2.89,6.451 6.452,6.451l56.984,0c46.758,0 85.876,-37.055 86.655,-83.807c0.798,-47.757 -37.677,-86.722 -85.252,-86.722Z" style="fill:#414757;fill-rule:nonzero;"/></g></svg>